<svg xmlns="http://www.w3.org/2000/svg" width="1400" height="203" viewBox="0 0 1400 203" preserveAspectRatio="xMinYMid"><style>.st0{fill:#f1f5f9}.st1{fill:url(#SVGID_1_)}.st2{opacity:.65;fill:#0e2b6d}.st3{fill:#fff}.st4{fill:#0e2b6d}.st5{opacity:.65;fill:#25508c}.st6{fill:#173f80}.st7{opacity:.65;fill:#2564a0}.st8{fill:#2564a2}.st9{opacity:.65}.st10,.st9{fill:#348cc2}</style><path class="st0" d="M0 95.3V203h1400v-98.2s-30-5.4-72.3 2.2c-42.3 7.7-114 20.3-139.3 30.3-25.3 10-62 21.4-95 32.6-33 11.1-81.7 18-141.3 15.2-59.7-2.8-131-19.9-181.7-36C719.7 133 637 104.3 618 101.5s-91.7-21.2-141.7-16.8c-50 4.3-94.3 6.4-175.7 29.4s-107.3 30-149.3 29.5c-42-.5-91-21.3-110.7-30.2S1.7 92 1.7 92 0 89.9 0 95.3z" id="Layer_1"/><g id="Layer_2"><linearGradient id="SVGID_1_" gradientUnits="userSpaceOnUse" x1="-4.516" y1="134.96" x2="1409.779" y2="134.96"><stop offset="0" stop-color="#0d286c"/><stop offset=".5" stop-color="#244f8c"/><stop offset="1" stop-color="#3492c5"/></linearGradient><path class="st1" d="M966.2 189c-90.1 0-168.4-26.1-244.9-51.7-83.9-28-163.2-54.5-256.1-48.6-78.6 5-135.7 21.2-186.1 35.6-92.6 26.4-159.6 45.4-283.6-31.8l3.7-5.9c56.1 34.9 103.8 52 150 53.7 42.7 1.6 82.3-9.7 128-22.7 50.7-14.4 108.2-30.8 187.6-35.8 94.3-5.9 177.9 22 258.8 49 115.1 38.4 234 78.1 391.3 27 244.7-79.6 292.9-53.7 294.9-52.5l-3.6 6 1.8-3-1.7 3c-.1-.1-12.3-6.4-54.2-2.9-38.3 3.2-110.2 15.5-235 56.1-54.4 17.5-104.2 24.5-150.9 24.5z"/><circle class="st2" cx="296.1" cy="117.9" r="15.2"/><circle class="st3" cx="296.1" cy="117.9" r="9.3"/><circle class="st4" cx="296.1" cy="117.9" r="4.6"/><circle class="st5" cx="632.9" cy="104.8" r="15.2"/><circle class="st3" cx="632.9" cy="104.8" r="9.3"/><circle class="st6" cx="632.9" cy="104.8" r="4.6"/><circle class="st7" cx="968.5" cy="185.1" r="15.2"/><circle class="st3" cx="968.5" cy="185.1" r="9.3"/><circle class="st8" cx="968.5" cy="185.1" r="4.6"/><circle class="st9" cx="1253.7" cy="120" r="15.2"/><circle class="st3" cx="1253.7" cy="120" r="9.3"/><circle class="st10" cx="1253.7" cy="120" r="4.6"/></g></svg>